<svg width="90" height="33" viewBox="0 0 90 33" fill="none" xmlns="http://www.w3.org/2000/svg">
<path d="M3.44 32.32C1.22667 32.32 0.0933333 31.44 0.04 29.68C0.04 28.9333 0.28 28.2667 0.76 27.68C1.24 27.0667 1.82667 26.76 2.52 26.76C3.02667 26.76 3.45333 26.9733 3.8 27.4C4.09333 27.72 4.24 28.12 4.24 28.6C4.24 29.9067 3.62667 30.56 2.4 30.56C1.76 30.56 1.30667 30.3067 1.04 29.8C1.17333 30.76 1.94667 31.24 3.36 31.24C3.68 31.24 3.97333 31.2 4.24 31.12C7.36 30.32 10.1733 27.8667 12.68 23.76L13.48 22.44C12.0133 20.3333 11.28 18.48 11.28 16.88C11.28 15.84 11.5867 15.04 12.2 14.48C12.7867 13.8933 13.6 13.6 14.64 13.6C15.5733 13.6 16.64 13.8667 17.84 14.4L19.88 10.44C20.9733 8.28 22.0267 6.61333 23.04 5.44C24.2667 3.97333 25.6667 2.96 27.24 2.4C26.5733 2.29333 25.8667 2.22667 25.12 2.2C24.4 2.14667 23.6267 2.12 22.8 2.12C17.92 2.12 14.4533 2.72 12.4 3.92C11.7333 4.32 11.1333 4.74667 10.6 5.2C10.0667 5.62667 9.61333 6.06667 9.24 6.52C8.49333 7.45333 8.12 8.32 8.12 9.12C8.12 10.0533 8.66667 10.6267 9.76 10.84C10.1333 10.92 10.5067 10.96 10.88 10.96C13.4667 10.96 15.8667 9.89333 18.08 7.76C18.1867 7.65333 18.3067 7.62667 18.44 7.68C18.5467 7.70667 18.6 7.78666 18.6 7.92C18.6 8 18.5867 8.05333 18.56 8.08C18.1333 8.61333 17.6133 9.10667 17 9.56C16.3867 10.0133 15.68 10.4267 14.88 10.8C13.28 11.5467 11.7333 11.92 10.24 11.92C9.06667 11.92 8.05333 11.6533 7.2 11.12C6.18667 10.5067 5.68 9.65333 5.68 8.56C5.68 7.57333 6.09333 6.61333 6.92 5.68C9.34667 2.85333 14.2133 1.44 21.52 1.44C22.6933 1.44 23.8267 1.48 24.92 1.56C26.04 1.64 27.1333 1.77333 28.2 1.96C29.1333 1.72 29.9467 1.6 30.64 1.6C32 1.6 32.68 1.93333 32.68 2.6C32.68 2.92 32.4933 3.18667 32.12 3.4C31.7467 3.61333 31.3067 3.72 30.8 3.72C30.5067 3.72 30.1467 3.64 29.72 3.48C29.32 3.32 28.84 3.06667 28.28 2.72C27 3.2 25.9467 4.02667 25.12 5.2C24.8267 5.62667 24.5067 6.22667 24.16 7C23.8133 7.77333 23.44 8.70667 23.04 9.8C22.5333 11.16 22.0667 12.3867 21.64 13.48C21.24 14.5467 20.8667 15.4667 20.52 16.24C21.5333 17.0667 22.4533 18.0667 23.28 19.24C23.9467 20.1467 24.56 21.0667 25.12 22C25.68 22.9333 26.2133 23.8933 26.72 24.88C26.7733 22.1867 27.5467 19.0133 29.04 15.36C29.7067 13.76 30.4267 12.24 31.2 10.8C32 9.36 32.8533 8 33.76 6.72C36.3733 3.04 38.92 1.04 41.4 0.719998H41.6C41.7867 0.719998 41.88 0.786664 41.88 0.919998C41.88 1.10667 41.8 1.2 41.64 1.2C39.8267 1.41333 37.9333 3.12 35.96 6.32C35.08 7.73333 34.2533 9.30667 33.48 11.04C32.7067 12.7733 32 14.6533 31.36 16.68C30.08 20.6267 29.44 23.8533 29.44 26.36C29.44 28.6267 29.9867 29.76 31.08 29.76C31.8 29.76 32.68 29.0933 33.72 27.76C34.7333 26.48 35.9333 24.4 37.32 21.52C37.4267 21.2533 37.56 21.0933 37.72 21.04H37.76C37.8667 21.04 37.92 21.1333 37.92 21.32C37.92 21.48 37.8533 21.6933 37.72 21.96C36.2533 24.9467 35.36 26.6933 35.04 27.2C33.7333 29.3067 32.4133 30.44 31.08 30.6C30.9733 30.6267 30.88 30.64 30.8 30.64C30.72 30.64 30.6267 30.64 30.52 30.64C28.84 30.64 27.68 29.64 27.04 27.64C26.9333 27.2933 26.7467 26.8667 26.48 26.36C26.2133 25.8267 25.8533 25.1867 25.4 24.44C24.8933 23.5867 24.3733 22.8 23.84 22.08C23.3333 21.3333 22.8133 20.6667 22.28 20.08C21.88 19.6267 21.48 19.2133 21.08 18.84C20.68 18.44 20.2667 18.0667 19.84 17.72C19.2533 18.9467 18.64 20.1067 18 21.2C17.3867 22.2667 16.7333 23.2667 16.04 24.2C17.4267 25.7467 19 27 20.76 27.96C20.8933 28.0133 20.92 28.1067 20.84 28.24C20.76 28.32 20.6533 28.3467 20.52 28.32C18.7067 27.52 17.0267 26.3733 15.48 24.88C14.44 26.1867 13.2667 27.44 11.96 28.64C10.6533 29.84 9.29333 30.7467 7.88 31.36C6.46667 32 4.98667 32.32 3.44 32.32ZM14.04 21.44C14.4933 20.6667 14.96 19.8267 15.44 18.92C15.9467 18.0133 16.4667 17.0533 17 16.04C16.36 15.7733 15.7333 15.64 15.12 15.64C13.6267 15.64 12.88 16.4 12.88 17.92C12.88 18.88 13.2667 20.0533 14.04 21.44ZM42.1206 30.28C40.758 30.28 39.526 29.972 38.4246 29.356C37.342 28.7213 36.474 27.872 35.8206 26.808C35.186 25.7253 34.8686 24.5213 34.8686 23.196C34.8686 21.8707 35.186 20.6853 35.8206 19.64C36.4553 18.576 37.3233 17.736 38.4246 17.12C39.526 16.4853 40.7486 16.168 42.0926 16.168C43.474 16.168 44.706 16.4853 45.7886 17.12C46.89 17.736 47.758 18.576 48.3926 19.64C49.0273 20.6853 49.3446 21.8707 49.3446 23.196C49.3446 24.5213 49.0273 25.7253 48.3926 26.808C47.758 27.872 46.89 28.7213 45.7886 29.356C44.706 29.972 43.4833 30.28 42.1206 30.28ZM42.0926 26.864C42.7833 26.864 43.39 26.7147 43.9126 26.416C44.454 26.0987 44.8646 25.6693 45.1446 25.128C45.4433 24.568 45.5926 23.9333 45.5926 23.224C45.5926 22.5147 45.4433 21.8893 45.1446 21.348C44.846 20.8067 44.4353 20.3867 43.9126 20.088C43.39 19.7707 42.7833 19.612 42.0926 19.612C41.4206 19.612 40.8233 19.7707 40.3006 20.088C39.778 20.3867 39.3673 20.8067 39.0686 21.348C38.77 21.8893 38.6206 22.5147 38.6206 23.224C38.6206 23.9333 38.77 24.568 39.0686 25.128C39.3673 25.6693 39.778 26.0987 40.3006 26.416C40.8233 26.7147 41.4206 26.864 42.0926 26.864ZM53.3659 30V10.848H57.0339V30H53.3659ZM50.2019 19.696V16.476H60.1979V19.696H50.2019ZM62.2607 30V16.476H65.9567V30H62.2607ZM64.1087 14.292C63.5114 14.292 63.0167 14.096 62.6247 13.704C62.2327 13.2933 62.0367 12.7893 62.0367 12.192C62.0367 11.6133 62.2327 11.1187 62.6247 10.708C63.0167 10.2973 63.5114 10.092 64.1087 10.092C64.7247 10.092 65.2194 10.2973 65.5927 10.708C65.9847 11.1187 66.1807 11.6133 66.1807 12.192C66.1807 12.7893 65.9847 13.2933 65.5927 13.704C65.2194 14.096 64.7247 14.292 64.1087 14.292ZM69.206 30V9.756H72.874V30H69.206ZM82.48 30.28C81.1173 30.28 79.8853 29.972 78.784 29.356C77.7013 28.7213 76.8333 27.872 76.18 26.808C75.5453 25.7253 75.228 24.5213 75.228 23.196C75.228 21.8707 75.5453 20.6853 76.18 19.64C76.8147 18.576 77.6827 17.736 78.784 17.12C79.8853 16.4853 81.108 16.168 82.452 16.168C83.8333 16.168 85.0653 16.4853 86.148 17.12C87.2493 17.736 88.1173 18.576 88.752 19.64C89.3867 20.6853 89.704 21.8707 89.704 23.196C89.704 24.5213 89.3867 25.7253 88.752 26.808C88.1173 27.872 87.2493 28.7213 86.148 29.356C85.0653 29.972 83.8427 30.28 82.48 30.28ZM82.452 26.864C83.1427 26.864 83.7493 26.7147 84.272 26.416C84.8133 26.0987 85.224 25.6693 85.504 25.128C85.8027 24.568 85.952 23.9333 85.952 23.224C85.952 22.5147 85.8027 21.8893 85.504 21.348C85.2053 20.8067 84.7947 20.3867 84.272 20.088C83.7493 19.7707 83.1427 19.612 82.452 19.612C81.78 19.612 81.1827 19.7707 80.66 20.088C80.1373 20.3867 79.7267 20.8067 79.428 21.348C79.1293 21.8893 78.98 22.5147 78.98 23.224C78.98 23.9333 79.1293 24.568 79.428 25.128C79.7267 25.6693 80.1373 26.0987 80.66 26.416C81.1827 26.7147 81.78 26.864 82.452 26.864Z" fill="white"/>
</svg>
