<svg width="100" height="100" viewBox="0 0 100 100" fill="none" xmlns="http://www.w3.org/2000/svg">
<rect width="100" height="100" rx="14" fill="url(#paint0_linear_943_3159)"/>
<g filter="url(#filter0_ddi_943_3159)">
<mask id="path-2-inside-1_943_3159" fill="white">
<path d="M36.6225 65V35.84H43.7825V65H36.6225ZM56.2225 65V35.84H63.3825V65H56.2225ZM42.3825 53.24V47.12H57.6225V53.24H42.3825Z"/>
</mask>
<path d="M36.6225 65V35.84H43.7825V65H36.6225ZM56.2225 65V35.84H63.3825V65H56.2225ZM42.3825 53.24V47.12H57.6225V53.24H42.3825Z" fill="black"/>
<path d="M36.6225 65H35.6225V66H36.6225V65ZM36.6225 35.84V34.84H35.6225V35.84H36.6225ZM43.7825 35.84H44.7825V34.84H43.7825V35.84ZM43.7825 65V66H44.7825V65H43.7825ZM56.2225 65H55.2225V66H56.2225V65ZM56.2225 35.84V34.84H55.2225V35.84H56.2225ZM63.3825 35.84H64.3825V34.84H63.3825V35.84ZM63.3825 65V66H64.3825V65H63.3825ZM42.3825 53.24H41.3825V54.24H42.3825V53.24ZM42.3825 47.12V46.12H41.3825V47.12H42.3825ZM57.6225 47.12H58.6225V46.12H57.6225V47.12ZM57.6225 53.24V54.24H58.6225V53.24H57.6225ZM36.6225 65H37.6225V35.84H36.6225H35.6225V65H36.6225ZM36.6225 35.84V36.84H43.7825V35.84V34.84H36.6225V35.84ZM43.7825 35.84H42.7825V65H43.7825H44.7825V35.84H43.7825ZM43.7825 65V64H36.6225V65V66H43.7825V65ZM56.2225 65H57.2225V35.84H56.2225H55.2225V65H56.2225ZM56.2225 35.84V36.84H63.3825V35.84V34.84H56.2225V35.84ZM63.3825 35.84H62.3825V65H63.3825H64.3825V35.84H63.3825ZM63.3825 65V64H56.2225V65V66H63.3825V65ZM42.3825 53.24H43.3825V47.12H42.3825H41.3825V53.24H42.3825ZM42.3825 47.12V48.12H57.6225V47.12V46.12H42.3825V47.12ZM57.6225 47.12H56.6225V53.24H57.6225H58.6225V47.12H57.6225ZM57.6225 53.24V52.24H42.3825V53.24V54.24H57.6225V53.24Z" fill="#1C1C21" mask="url(#path-2-inside-1_943_3159)"/>
</g>
<defs>
<filter id="filter0_ddi_943_3159" x="23.2264" y="30.0986" width="53.552" height="55.9524" filterUnits="userSpaceOnUse" color-interpolation-filters="sRGB">
<feFlood flood-opacity="0" result="BackgroundImageFix"/>
<feColorMatrix in="SourceAlpha" type="matrix" values="0 0 0 0 0 0 0 0 0 0 0 0 0 0 0 0 0 0 127 0" result="hardAlpha"/>
<feMorphology radius="1" operator="dilate" in="SourceAlpha" result="effect1_dropShadow_943_3159"/>
<feOffset/>
<feComposite in2="hardAlpha" operator="out"/>
<feColorMatrix type="matrix" values="0 0 0 0 0.784314 0 0 0 0 0.858824 0 0 0 0 0.917647 0 0 0 1 0"/>
<feBlend mode="normal" in2="BackgroundImageFix" result="effect1_dropShadow_943_3159"/>
<feColorMatrix in="SourceAlpha" type="matrix" values="0 0 0 0 0 0 0 0 0 0 0 0 0 0 0 0 0 0 127 0" result="hardAlpha"/>
<feMorphology radius="5.74118" operator="erode" in="SourceAlpha" result="effect2_dropShadow_943_3159"/>
<feOffset dy="7.6549"/>
<feGaussianBlur stdDeviation="9.56865"/>
<feComposite in2="hardAlpha" operator="out"/>
<feColorMatrix type="matrix" values="0 0 0 0 0.788235 0 0 0 0 0.858824 0 0 0 0 0.917647 0 0 0 0.32 0"/>
<feBlend mode="normal" in2="effect1_dropShadow_943_3159" result="effect2_dropShadow_943_3159"/>
<feBlend mode="normal" in="SourceGraphic" in2="effect2_dropShadow_943_3159" result="shape"/>
<feColorMatrix in="SourceAlpha" type="matrix" values="0 0 0 0 0 0 0 0 0 0 0 0 0 0 0 0 0 0 127 0" result="hardAlpha"/>
<feOffset dy="3.82745"/>
<feGaussianBlur stdDeviation="4"/>
<feComposite in2="hardAlpha" operator="arithmetic" k2="-1" k3="1"/>
<feColorMatrix type="matrix" values="0 0 0 0 0.0470588 0 0 0 0 0.286275 0 0 0 0 0.52549 0 0 0 0.04 0"/>
<feBlend mode="normal" in2="shape" result="effect3_innerShadow_943_3159"/>
</filter>
<linearGradient id="paint0_linear_943_3159" x1="50" y1="0" x2="50" y2="100" gradientUnits="userSpaceOnUse">
<stop stop-color="#EBF3FA"/>
<stop offset="1" stop-color="#DFEDFA"/>
</linearGradient>
</defs>
</svg>
